<svg width="256" height="256" viewBox="0 0 24 24" fill="none" xmlns="http://www.w3.org/2000/svg">
  <path
    d="M10.74 3.55C10.83 3.2 11.15 3 11.5 3h1c0.35 0 0.67 0.2 0.76 0.55l0.3 1.2c0.44 0.11 0.85 0.28 1.24 0.5l1.04-0.74c0.29-0.2 0.69-0.17 0.94 0.08l0.71 0.71c0.25 0.25 0.28 0.65 0.08 0.94l-0.74 1.04c0.22 0.39 0.39 0.8 0.5 1.24l1.2 0.3c0.35 0.09 0.55 0.41 0.55 0.76v1c0 0.35-0.2 0.67-0.55 0.76l-1.2 0.3c-0.11 0.44-0.28 0.85-0.5 1.24l0.74 1.04c0.2 0.29 0.17 0.69-0.08 0.94l-0.71 0.71c-0.25 0.25-0.65 0.28-0.94 0.08l-1.04-0.74c-0.39 0.22-0.8 0.39-1.24 0.5l-0.3 1.2c-0.09 0.35-0.41 0.55-0.76 0.55h-1c-0.35 0-0.67-0.2-0.76-0.55l-0.3-1.2c-0.44-0.11-0.85-0.28-1.24-0.5l-1.04 0.74c-0.29 0.2-0.69 0.17-0.94-0.08l-0.71-0.71c-0.25-0.25-0.28-0.65-0.08-0.94l0.74-1.04c-0.22-0.39-0.39-0.8-0.5-1.24l-1.2-0.3C4.2 11.25 4 10.93 4 10.58v-1c0-0.35 0.2-0.67 0.55-0.76l1.2-0.3c0.11-0.44 0.28-0.85 0.5-1.24l-0.74-1.04c-0.2-0.29-0.17-0.69 0.08-0.94l0.71-0.71c0.25-0.25 0.65-0.28 0.94-0.08l1.04 0.74c0.39-0.22 0.8-0.39 1.24-0.5l0.3-1.2Z"
    stroke="black"
    stroke-width="1.5"
    stroke-linejoin="round"
  />
  <circle cx="12" cy="10.58" r="2.6" stroke="black" stroke-width="1.5" />
</svg>
